name analog
datacolumns 19
datarows 43
range 0.704 0.725
endheader
time	ground_force_vx	ground_force_vy	ground_force_vz	ground_force_px	ground_force_py	ground_force_pz	l_ground_force_vx	l_ground_force_vy	l_ground_force_vz	l_ground_force_px	l_ground_force_py	l_ground_force_pz	ground_torque_x	ground_torque_y	ground_torque_z	l_ground_torque_x	l_ground_torque_y	l_ground_torque_z
0.704	-0.0	-0.0	-0.0	-4.2132439613342285	-3.881073951721192	-698.943115234375	-0.0	-0.0	-0.0	-0.0	-0.0	-0.0	-0.0	-0.0	-0.0	-0.0	-0.0	-0.0
0.7045	-0.0	-0.0	-0.0	-4.185189247131348	-4.257901191711426	-700.1640014648438	-0.0	-0.0	-0.0	-0.0	-0.0	-0.0	-0.0	-0.0	-0.0	-0.0	-0.0	-0.0
0.705	-0.0	-0.0	-0.0	-3.7392873764038086	-4.690667152404785	-700.466552734375	-0.0	-0.0	-0.0	-0.0	-0.0	-0.0	-0.0	-0.0	-0.0	-0.0	-0.0	-0.0
0.7055	-0.0	-0.0	-0.0	-4.138941764831543	-4.614347457885742	-698.369384765625	-0.0	-0.0	-0.0	-0.0	-0.0	-0.0	-0.0	-0.0	-0.0	-0.0	-0.0	-0.0
0.706	-0.0	-0.0	-0.0	-4.549736022949219	-4.957674503326416	-699.2440795898438	-0.0	-0.0	-0.0	-0.0	-0.0	-0.0	-0.0	-0.0	-0.0	-0.0	-0.0	-0.0
0.7065	-0.0	-0.0	-0.0	-4.165230751037598	-4.607142448425293	-698.427490234375	-0.0	-0.0	-0.0	-0.0	-0.0	-0.0	-0.0	-0.0	-0.0	-0.0	-0.0	-0.0
0.707	-0.0	-0.0	-0.0	-4.302658081054688	-4.223208904266357	-698.508544921875	-0.0	-0.0	-0.0	-0.0	-0.0	-0.0	-0.0	-0.0	-0.0	-0.0	-0.0	-0.0
0.7075	-0.0	-0.0	-0.0	-4.035048961639404	-4.593666076660156	-696.5523071289062	-0.0	-0.0	-0.0	-0.0	-0.0	-0.0	-0.0	-0.0	-0.0	-0.0	-0.0	-0.0
0.708	-0.0	-0.0	-0.0	-4.062456130981445	-4.449425220489502	-695.7376708984375	-0.0	-0.0	-0.0	-0.0	-0.0	-0.0	-0.0	-0.0	-0.0	-0.0	-0.0	-0.0
0.7085	-0.0	-0.0	-0.0	-3.3214402198791504	-4.799008369445801	-693.7827758789062	-0.0	-0.0	-0.0	-0.0	-0.0	-0.0	-0.0	-0.0	-0.0	-0.0	-0.0	-0.0
0.709	-0.0	-0.0	-0.0	-2.958137989044189	-4.916350364685059	-693.8091430664062	-0.0	-0.0	-0.0	-0.0	-0.0	-0.0	-0.0	-0.0	-0.0	-0.0	-0.0	-0.0
0.7095	-0.0	-0.0	-0.0	-2.209547281265259	-5.03269624710083	-693.5633544921875	-0.0	-0.0	-0.0	-0.0	-0.0	-0.0	-0.0	-0.0	-0.0	-0.0	-0.0	-0.0
0.71	-0.0	-0.0	-0.0	-1.132785439491272	-5.252501487731934	-690.7132568359375	-0.0	-0.0	-0.0	-0.0	-0.0	-0.0	-0.0	-0.0	-0.0	-0.0	-0.0	-0.0
0.7105	-0.0	-0.0	-0.0	-0.3005167543888092	-4.723911285400391	-690.44287109375	-0.0	-0.0	-0.0	-0.0	-0.0	-0.0	-0.0	-0.0	-0.0	-0.0	-0.0	-0.0
0.711	-0.0	-0.0	-0.0	0.2527565658092499	-5.380496025085449	-688.1004638671875	-0.0	-0.0	-0.0	-0.0	-0.0	-0.0	-0.0	-0.0	-0.0	-0.0	-0.0	-0.0
0.7115	-0.0	-0.0	-0.0	0.6661831736564636	-4.881336212158203	-687.1459350585938	-0.0	-0.0	-0.0	-0.0	-0.0	-0.0	-0.0	-0.0	-0.0	-0.0	-0.0	-0.0
0.712	-0.0	-0.0	-0.0	1.165377140045166	-5.122180461883545	-684.214599609375	-0.0	-0.0	-0.0	-0.0	-0.0	-0.0	-0.0	-0.0	-0.0	-0.0	-0.0	-0.0
0.7125	-0.0	-0.0	-0.0	1.632243514060974	-4.718380451202393	-678.9555053710938	-0.0	-0.0	-0.0	-0.0	-0.0	-0.0	-0.0	-0.0	-0.0	-0.0	-0.0	-0.0
0.713	-0.0	-0.0	-0.0	1.1753082275390625	-4.545650482177734	-675.7161865234375	-0.0	-0.0	-0.0	-0.0	-0.0	-0.0	-0.0	-0.0	-0.0	-0.0	-0.0	-0.0
0.7135	-0.0	-0.0	-0.0	0.7661404609680176	-4.1471781730651855	-673.7841796875	-0.0	-0.0	-0.0	-0.0	-0.0	-0.0	-0.0	-0.0	-0.0	-0.0	-0.0	-0.0
0.714	-0.0	-0.0	-0.0	-0.4091411530971527	-3.958616018295288	-671.2083129882812	-0.0	-0.0	-0.0	-0.0	-0.0	-0.0	-0.0	-0.0	-0.0	-0.0	-0.0	-0.0
0.7145	-0.0	-0.0	-0.0	-1.521557092666626	-4.550624370574951	-669.89892578125	-0.0	-0.0	-0.0	-0.0	-0.0	-0.0	-0.0	-0.0	-0.0	-0.0	-0.0	-0.0
0.715	-0.0	-0.0	-0.0	-2.6763153076171875	-4.346312999725342	-668.1973266601562	-0.0	-0.0	-0.0	-0.0	-0.0	-0.0	-0.0	-0.0	-0.0	-0.0	-0.0	-0.0
0.7155	-0.0	-0.0	-0.0	-3.772686004638672	-3.417495012283325	-668.3375244140625	-0.0	-0.0	-0.0	-0.0	-0.0	-0.0	-0.0	-0.0	-0.0	-0.0	-0.0	-0.0
0.716	-0.0	-0.0	-0.0	-4.99578857421875	-2.5122241973876958	-669.3597412109375	-0.0	-0.0	-0.0	-0.0	-0.0	-0.0	-0.0	-0.0	-0.0	-0.0	-0.0	-0.0
0.7165	-0.0	-0.0	-0.0	-5.484235763549805	-1.9096779823303225	-669.8983764648438	-0.0	-0.0	-0.0	-0.0	-0.0	-0.0	-0.0	-0.0	-0.0	-0.0	-0.0	-0.0
0.717	-0.0	-0.0	-0.0	-5.441841125488281	-1.625551462173462	-669.4269409179688	-0.0	-0.0	-0.0	-0.0	-0.0	-0.0	-0.0	-0.0	-0.0	-0.0	-0.0	-0.0
0.7175	-0.0	-0.0	-0.0	-5.399326324462891	-1.222409963607788	-672.0338134765625	-0.0	-0.0	-0.0	-0.0	-0.0	-0.0	-0.0	-0.0	-0.0	-0.0	-0.0	-0.0
0.718	-0.0	-0.0	-0.0	-5.310040473937988	-1.1880247592926023	-673.69873046875	-0.0	-0.0	-0.0	-0.0	-0.0	-0.0	-0.0	-0.0	-0.0	-0.0	-0.0	-0.0
0.7185	-0.0	-0.0	-0.0	-3.828292846679688	-1.4222103357315063	-674.7426147460938	-0.0	-0.0	-0.0	-0.0	-0.0	-0.0	-0.0	-0.0	-0.0	-0.0	-0.0	-0.0
0.719	-0.0	-0.0	-0.0	-3.0934596061706543	-2.007319688796997	-674.2354736328125	-0.0	-0.0	-0.0	-0.0	-0.0	-0.0	-0.0	-0.0	-0.0	-0.0	-0.0	-0.0
0.7195	-0.0	-0.0	-0.0	-1.420120358467102	-1.711234450340271	-673.6835327148438	-0.0	-0.0	-0.0	-0.0	-0.0	-0.0	-0.0	-0.0	-0.0	-0.0	-0.0	-0.0
0.72	-0.0	-0.0	-0.0	-0.0643030554056167	-1.7646629810333252	-673.048583984375	-0.0	-0.0	-0.0	-0.0	-0.0	-0.0	-0.0	-0.0	-0.0	-0.0	-0.0	-0.0
0.7205	-0.0	-0.0	-0.0	1.5843287706375122	-1.9789443016052248	-675.025146484375	-0.0	-0.0	-0.0	-0.0	-0.0	-0.0	-0.0	-0.0	-0.0	-0.0	-0.0	-0.0
0.721	-0.0	-0.0	-0.0	3.531859874725342	-2.6953909397125244	-678.2161254882812	-0.0	-0.0	-0.0	-0.0	-0.0	-0.0	-0.0	-0.0	-0.0	-0.0	-0.0	-0.0
0.7215	-0.0	-0.0	-0.0	3.925262451171875	-2.787623405456543	-680.4072265625	-0.0	-0.0	-0.0	-0.0	-0.0	-0.0	-0.0	-0.0	-0.0	-0.0	-0.0	-0.0
0.722	-0.0	-0.0	-0.0	3.7223172187805176	-2.698414087295532	-684.82763671875	-0.0	-0.0	-0.0	-0.0	-0.0	-0.0	-0.0	-0.0	-0.0	-0.0	-0.0	-0.0
0.7225	-0.0	-0.0	-0.0	3.165567398071289	-2.538812160491944	-690.0281372070312	-0.0	-0.0	-0.0	-0.0	-0.0	-0.0	-0.0	-0.0	-0.0	-0.0	-0.0	-0.0
0.723	-0.0	-0.0	-0.0	3.098069906234741	-2.4524149894714355	-694.8972778320312	-0.0	-0.0	-0.0	-0.0	-0.0	-0.0	-0.0	-0.0	-0.0	-0.0	-0.0	-0.0
0.7235	-0.0	-0.0	-0.0	2.343704462051392	-2.695552349090576	-700.804931640625	-0.0	-0.0	-0.0	-0.0	-0.0	-0.0	-0.0	-0.0	-0.0	-0.0	-0.0	-0.0
0.724	-0.0	-0.0	-0.0	2.0735392570495605	-2.4498767852783203	-706.7227172851562	-0.0	-0.0	-0.0	-0.0	-0.0	-0.0	-0.0	-0.0	-0.0	-0.0	-0.0	-0.0
0.7245	-0.0	-0.0	-0.0	2.2062578201293945	-2.40652084350586	-709.5384521484375	-0.0	-0.0	-0.0	-0.0	-0.0	-0.0	-0.0	-0.0	-0.0	-0.0	-0.0	-0.0
0.725	-0.0	-0.0	-0.0	1.960477352142334	-3.256487369537353	-714.043701171875	-0.0	-0.0	-0.0	-0.0	-0.0	-0.0	-0.0	-0.0	-0.0	-0.0	-0.0	-0.0
